<svg width="14" height="15" viewBox="0 0 14 15" fill="none" xmlns="http://www.w3.org/2000/svg">
<path d="M9.45016 10.7163L10.2002 9.96634L7.55016 7.29967V3.94967H6.55016V7.69967L9.45016 10.7163ZM7.00016 14.1663C6.08905 14.1663 5.22794 13.9913 4.41683 13.6413C3.60572 13.2913 2.89738 12.8136 2.29183 12.208C1.68627 11.6025 1.2085 10.8941 0.858496 10.083C0.508496 9.2719 0.333496 8.41079 0.333496 7.49967C0.333496 6.58856 0.508496 5.72745 0.858496 4.91634C1.2085 4.10523 1.68627 3.3969 2.29183 2.79134C2.89738 2.18579 3.60572 1.70801 4.41683 1.35801C5.22794 1.00801 6.08905 0.833008 7.00016 0.833008C7.91127 0.833008 8.77238 1.00801 9.5835 1.35801C10.3946 1.70801 11.1029 2.18579 11.7085 2.79134C12.3141 3.3969 12.7918 4.10523 13.1418 4.91634C13.4918 5.72745 13.6668 6.58856 13.6668 7.49967C13.6668 8.41079 13.4918 9.2719 13.1418 10.083C12.7918 10.8941 12.3141 11.6025 11.7085 12.208C11.1029 12.8136 10.3946 13.2913 9.5835 13.6413C8.77238 13.9913 7.91127 14.1663 7.00016 14.1663ZM7.00016 13.1663C8.55572 13.1663 9.88905 12.6108 11.0002 11.4997C12.1113 10.3886 12.6668 9.05523 12.6668 7.49967C12.6668 5.94412 12.1113 4.61079 11.0002 3.49967C9.88905 2.38856 8.55572 1.83301 7.00016 1.83301C5.44461 1.83301 4.11127 2.38856 3.00016 3.49967C1.88905 4.61079 1.3335 5.94412 1.3335 7.49967C1.3335 9.05523 1.88905 10.3886 3.00016 11.4997C4.11127 12.6108 5.44461 13.1663 7.00016 13.1663Z" fill="black"/>
</svg>
