<svg width="10" height="15" viewBox="0 0 10 15" fill="none" xmlns="http://www.w3.org/2000/svg">
<path d="M4.9999 14.1663C3.82212 14.1663 2.86101 13.9941 2.11657 13.6497C1.37212 13.3052 0.999902 12.8663 0.999902 12.333C0.999902 12.033 1.13601 11.7497 1.40824 11.483C1.68046 11.2163 2.05546 10.9997 2.53324 10.833L2.83324 11.7997C2.65546 11.8552 2.49157 11.933 2.34157 12.033C2.19157 12.133 2.07212 12.233 1.98324 12.333C2.17212 12.5552 2.56379 12.7497 3.15824 12.9163C3.75268 13.083 4.36657 13.1663 4.9999 13.1663C5.63324 13.1663 6.2499 13.083 6.8499 12.9163C7.4499 12.7497 7.84435 12.5552 8.03324 12.333C7.94435 12.2441 7.82768 12.1497 7.68324 12.0497C7.53879 11.9497 7.37212 11.8663 7.18324 11.7997L7.46657 10.833C7.94435 10.9997 8.31935 11.2163 8.59157 11.483C8.86379 11.7497 8.9999 12.033 8.9999 12.333C8.9999 12.8663 8.62768 13.3052 7.88324 13.6497C7.13879 13.9941 6.17768 14.1663 4.9999 14.1663ZM4.9999 10.583C5.23438 10.1497 5.48189 9.75245 5.74244 9.39134C6.00297 9.03023 6.26101 8.68856 6.51657 8.36634C7.00546 7.73301 7.39157 7.18856 7.6749 6.73301C7.95824 6.27745 8.0999 5.67704 8.0999 4.93177C8.0999 4.06882 7.79871 3.33662 7.19634 2.73517C6.59395 2.13373 5.86061 1.83301 4.99634 1.83301C4.13205 1.83301 3.3999 2.13373 2.7999 2.73517C2.1999 3.33662 1.8999 4.06882 1.8999 4.93177C1.8999 5.67704 2.04157 6.27745 2.3249 6.73301C2.60824 7.18856 2.99435 7.73301 3.48324 8.36634C3.73879 8.68856 3.99684 9.03023 4.25737 9.39134C4.51791 9.75245 4.76542 10.1497 4.9999 10.583ZM4.9999 12.3997C4.86657 12.3997 4.7499 12.3621 4.6499 12.2868C4.5499 12.2116 4.47768 12.1103 4.43324 11.983C4.16657 11.1719 3.83313 10.4997 3.43292 9.96634C3.0327 9.43301 2.64391 8.9219 2.26657 8.43301C1.88879 7.94412 1.56657 7.43579 1.2999 6.90801C1.03324 6.38023 0.899902 5.72167 0.899902 4.93232C0.899902 3.78834 1.29612 2.81912 2.08855 2.02467C2.881 1.23023 3.85145 0.833008 4.9999 0.833008C6.14836 0.833008 7.11881 1.22922 7.91125 2.02166C8.70369 2.8141 9.0999 3.78455 9.0999 4.93301C9.0999 5.7219 8.96727 6.37935 8.70202 6.90536C8.43675 7.43136 8.11382 7.94057 7.73324 8.43301C7.35546 8.9219 6.96657 9.43301 6.56657 9.96634C6.16657 10.4997 5.83406 11.1704 5.56904 11.9785C5.52295 12.1037 5.4499 12.2052 5.3499 12.283C5.2499 12.3608 5.13324 12.3997 4.9999 12.3997ZM5.00337 5.93301C5.27884 5.93301 5.51379 5.83463 5.70824 5.63787C5.90268 5.44111 5.9999 5.205 5.9999 4.92954C5.9999 4.65407 5.90152 4.41912 5.70477 4.22467C5.508 4.03023 5.27189 3.93301 4.99644 3.93301C4.72097 3.93301 4.48601 4.03139 4.29157 4.22814C4.09712 4.42491 3.9999 4.66102 3.9999 4.93647C3.9999 5.21194 4.09828 5.4469 4.29504 5.64134C4.4918 5.83579 4.72791 5.93301 5.00337 5.93301Z" fill="black"/>
</svg>
